<svg id="Groupe_1" data-name="Groupe 1" xmlns="http://www.w3.org/2000/svg" width="2713" height="849" viewBox="0 0 2713 849">
  <defs>
    <style>
      .cls-1 {
        fill: #ffda2d;
      }

      .cls-1, .cls-2, .cls-3, .cls-4 {
        fill-rule: evenodd;
      }

      .cls-2 {
        fill: #9e9e9e;
      }

      .cls-3 {
        fill: #e64c3c;
      }

      .cls-4 {
        fill: #fff7f7;
      }
    </style>
  </defs>
  <path id="Fond_4" data-name="Fond 4" class="cls-1" d="M545.425,611.309c24.184-.28,49.724-0.3,69.054,3.634a45.389,45.389,0,0,0,7.269,9.086c1.12,23.4-11.676,42.394-19.99,61.785-14.67,34.216-27.742,68.739-41.8,101.763-6.761,15.887-10.9,48.781-27.258,54.516-3.62,2.43-11.825,2-18.172,1.817-3.024-4-5.154-3.681-7.269-9.086-8.3-9.592-3.868-85.122-3.635-105.4-22.19.1-45.852-.918-65.419-1.818-3.024-4-5.153-3.681-7.269-9.086-8.967-9.881,9.545-50.323,14.538-61.784,14.855-34.1,30.829-71.078,45.43-105.4,6.411-15.07,7.981-31.4,16.355-45.43,5.489-9.2,18.416-9.984,30.892-7.269C552.746,521.713,545.72,572.968,545.425,611.309ZM200.157,733.061c0.283,35.036,3.679,80.045-3.635,109.032-7.558,3.794-12.439,5.589-25.44,5.452-1.856-1.462-.5-0.645-3.635-1.817-11.544-19.263-17.608-41.255-27.258-63.6-13.44-31.125-28.486-65.077-41.8-96.312-5.44-12.766-21.564-47.57-14.538-58.151,1.884-5.925,3.242-7.119,9.086-9.086,12.58-8.171,46.521-3.864,65.419-3.634-0.218-36.159-4.708-78.576,1.817-107.215a45.389,45.389,0,0,0,9.086-7.269c32.772,0.236,30.485,23.037,39.979,45.43,18.411,43.426,37.963,89.27,56.333,132.656,7.231,17.078,22.369,50.932-9.086,52.7C246.34,737.744,214.53,733.3,200.157,733.061Z"/>
  <path id="Fond_3" data-name="Fond 3" class="cls-2" d="M699.435,346.293v60.779c0,7.5,1.614,20.3-1.483,25.2-1.4,4.34-2.615,5.2-5.929,7.412-9.3,7.211-66.906,2.967-84.5,2.965-7.481,0-20.334,1.632-25.2-1.482-4.339-1.4-5.2-2.615-7.412-5.93-7.234-9.5-3.142-69.544-2.965-87.463ZM288.8,349.258H416.292v60.779c0,7.5,1.614,20.3-1.482,25.2-1.4,4.339-2.615,5.2-5.93,7.412-9.3,7.211-66.9,2.967-84.5,2.965-7.48,0-20.333,1.632-25.2-1.482-4.339-1.4-5.2-2.615-7.412-5.93C284.47,428.619,288.628,367.37,288.8,349.258ZM5.662,352.223H133.15c0.463,21.976,5.127,88.144-8.9,93.392-6.069,3.934-20.846.71-29.648,1.482-18.789,1.65-80.5,7.355-85.98-7.412C1.392,430.189,5.485,370.141,5.662,352.223Z"/>
  <path id="Fond_2" data-name="Fond 2" class="cls-3" d="M697.952,316.644c-42.527-.062-85.473,1.416-126.006,1.483q-0.741-25.2-1.482-50.4c0-30.957,3.637-69.587-5.93-91.911-6.02-14.047-17.458-24.4-29.648-32.613-11.074-7.463-32.064-19.008-54.85-13.342-80.232,19.953-65.661,94.781-63.744,188.268-20.35,2.538-79.352,2.143-103.769,2.965-5.163-.443-16.72.191-23.719,0q-0.741-25.2-1.482-50.4c0-30.957,3.637-69.586-5.93-91.91-6.02-14.047-17.458-24.4-29.648-32.613-11.074-7.464-32.065-19.008-54.85-13.342-80.233,19.953-65.661,94.781-63.744,188.268-40.038.325-85.123,1.428-127.488,1.482C5.27,285.209,2.816,230.353,4.179,195.086c0.766-7.634,1.383-15.541,2.965-23.719C17.323,108.392,59.833,59.891,113.878,27.572c6.549-3.916,13.442-4.355,20.754-7.412C202.687-8.293,277.45,8.481,325.865,42.4c8.256,5.784,22.236,17.789,22.236,17.789s13.363-12.48,20.754-17.789A241.836,241.836,0,0,1,434.081,9.783C475.715-3.638,533.627,2.956,567.5,17.2,634.778,45.479,675.691,92.277,694.987,168.4,705.569,225.617,698.887,271.12,697.952,316.644Z"/>
  <path id="AGNET" class="cls-4" d="M926.08,224.205V172.024q0-43.581,28.261-43.586,14.573,0,20.229,9.515t5.653,34.071V434.463H1101V163.737q0-81.034-34.21-119.862T961.184,5.046q-74.074,0-114.979,42.819T805.3,168.034V434.463H926.08V334.706h34.806v-110.5H926.08Zm480.98,70.6h28.85q17.85,0,17.85,12.278,0,16.272-27.07,16.268-42.54,0-67.53-26.091t-24.99-70.6q0-43.583,26.92-70.9t69.47-27.318q23.49,0,52.06,13.813V17.631q-36.6-12.582-66.64-12.585-88.065,0-146.81,62t-58.75,155.315q0,93,57.71,157.77T1408.54,444.9q63.66,0,107.25-41.744,43.575-41.74,43.58-103.134,0-52.79-37.19-100.371H1407.06V294.8Zm374.77,139.66V166.806q0-38.365,25.58-38.368,26.475,0,26.48,38.368V434.463h120.78V166.806q0-78.27-36.44-120.015T1813.06,5.046q-69.015,0-110.51,42.972t-41.5,114.491V434.463h120.78ZM2239,178.47q-19.035,0-26.47-4.757t-7.44-17.036q0-20.869,31.24-20.872h77.05V15.482H2208.36q-60.675,0-94.15,33.15t-33.47,93.312V306.16q0,62.314,35.4,95.306t102.34,33h94.9V314.754h-81.22q-21.12,0-27.96-4.144t-6.84-17.342q0-11.661,6.69-16.575t22.76-4.911h78.83V178.47H2239Zm473.54-42.665V15.482H2407.02V135.805h92.52V434.463h120.78V135.805h92.22Z"/>
</svg>
