<svg width="251" height="70" viewBox="0 0 251 70" fill="none" xmlns="http://www.w3.org/2000/svg">
<path d="M17.7645 43.4223C17.2004 43.4223 16.6773 43.7641 16.4605 44.3063L10.8382 58.362C10.6652 58.7944 10.7188 59.2858 10.9795 59.6715C11.2417 60.0572 11.6768 60.2891 12.1434 60.2892L16.3602 60.2892L16.3602 67.317C16.3603 67.991 16.838 68.5703 17.4995 68.6978C18.1515 68.8175 18.8198 68.466 19.0712 67.8385L24.6934 53.7831C24.8663 53.3506 24.813 52.8592 24.552 52.4735C24.2899 52.0876 23.8547 51.8559 23.3881 51.8558L19.1713 51.8558L19.1713 44.828C19.1713 44.06 18.5526 43.4223 17.7645 43.4223Z" fill="#F5DF66"/>
<path d="M44.1903 43.4223C44.7544 43.4223 45.2775 43.7641 45.4944 44.3063L51.1166 58.362C51.2896 58.7944 51.236 59.2858 50.9753 59.6715C50.7131 60.0572 50.2781 60.2891 49.8114 60.2892L45.5947 60.2892L45.5947 67.317C45.5945 67.991 45.1169 68.5703 44.4553 68.6978C43.8034 68.8175 43.135 68.466 42.8837 67.8385L37.2614 53.7831C37.0885 53.3506 37.1419 52.8592 37.4029 52.4735C37.6649 52.0876 38.1001 51.8559 38.5668 51.8558L42.7835 51.8558L42.7835 44.828C42.7835 44.06 43.4022 43.4223 44.1903 43.4223Z" fill="#F5DF66"/>
<path d="M25.3391 31.5615V38.5894C25.3392 39.364 25.9643 39.9912 26.7381 39.9949C26.7431 39.9949 26.7481 39.995 26.7531 39.995H35.1866C35.9635 39.995 36.5921 39.3664 36.5921 38.5894L36.5921 31.5616L25.3391 31.5615Z" fill="#FFF7F7"/>
<path d="M61.8923 38.5894V31.5615H50.6478V38.5894C50.6479 39.3662 51.2765 39.9948 52.0533 39.9949H60.4868C61.2637 39.9949 61.8924 39.3663 61.8923 38.5894Z" fill="#FFF7F7"/>
<path d="M0.0388659 38.5894C0.0388659 39.3664 0.667465 39.995 1.44442 39.995H9.87788C10.6548 39.995 11.2834 39.3664 11.2834 38.5894L11.2834 31.5616H0.0388641L0.0388659 38.5894Z" fill="#FFF7F7"/>
<path d="M0.0389619 28.7503L0.0388947 18.9113C0.0388947 8.83636 8.23627 0.638983 18.3113 0.638916C23.2182 0.638981 27.6797 2.5834 30.9657 5.74214C34.2517 2.58338 38.7132 0.638948 43.62 0.638916C53.6951 0.639049 61.8923 8.83629 61.8923 18.9113L61.8925 28.7503H50.6479L50.6478 18.9113C50.6478 15.0365 47.4948 11.8835 43.62 11.8835C39.7452 11.8835 36.5922 15.0365 36.5922 18.9113L36.5922 28.7503H25.3392L25.3391 18.9113C25.3391 15.0365 22.1861 11.8835 18.3113 11.8835C14.4365 11.8835 11.2835 15.0365 11.2835 18.9113L11.2835 28.7503H0.0389619Z" fill="#C83939"/>
<path fill-rule="evenodd" clip-rule="evenodd" d="M87.8546 20.749C86.9735 20.749 86.2592 20.0347 86.2592 19.1535V15.9689C86.2592 13.3074 87.1228 11.9765 88.8501 11.9762C89.7408 11.9762 90.359 12.2667 90.7046 12.8478C91.0503 13.4289 91.2231 14.4693 91.2229 15.9689C91.2228 17.1943 91.2228 32.47 91.2229 38.0153C91.2229 39.1198 92.1183 40.0097 93.2229 40.0097H100.296C101.4 40.0097 102.296 39.1143 102.296 38.0097V15.2098C102.296 10.261 101.25 6.60102 99.1592 4.22979C97.0683 1.85856 93.8411 0.672913 89.4774 0.672852C84.9501 0.672852 81.4364 1.98033 78.9364 4.5953C76.4363 7.21026 75.1862 10.8796 75.1862 15.6034V38.0097C75.1862 39.1143 76.0817 40.0097 77.1862 40.0097H84.2592C85.3637 40.0097 86.2592 39.1143 86.2592 38.0097V32.4669C86.2592 31.5858 86.9735 30.8714 87.8546 30.8714V30.8714C88.7358 30.8714 89.4501 30.1571 89.4501 29.276V22.3445C89.4501 21.4634 88.7358 20.749 87.8546 20.749V20.749ZM130.355 27.2158C130.355 27.2161 130.355 27.2163 130.355 27.2163H133C134.091 27.2163 134.636 27.5912 134.636 28.341C134.636 29.3348 133.809 29.8315 132.154 29.8313C129.554 29.8313 127.491 29.0346 125.963 27.4412C124.436 25.8478 123.672 23.692 123.672 20.9739C123.672 18.3122 124.495 16.1473 126.14 14.479C127.785 12.8108 129.908 11.9766 132.509 11.9766C133.077 11.9766 133.67 12.0426 134.286 12.1747C135.728 12.4836 137.282 11.5295 137.282 10.0546V3.25341C137.282 2.39926 136.741 1.63079 135.92 1.39823C134.211 0.914791 132.629 0.672997 131.172 0.672852C125.79 0.672852 121.304 2.56603 117.713 6.35238C114.123 10.1387 112.327 14.8813 112.327 20.58C112.327 26.2596 114.091 31.0771 117.618 35.0326C121.145 38.9881 125.436 40.9659 130.49 40.9658C134.381 40.9658 137.659 39.6911 140.323 37.1418C142.986 34.5928 144.318 31.4435 144.318 27.6942C144.318 24.7582 143.376 21.9541 141.49 19.2819C141.136 18.7792 140.549 18.4997 139.934 18.4997H132.355C131.25 18.4997 130.355 19.3951 130.355 20.4997V27.2158V27.2158ZM164.713 40.0099V15.4909C164.713 13.148 165.495 11.9764 167.058 11.9762C168.676 11.9762 169.485 13.1478 169.486 15.4909V38.0097C169.486 39.1143 170.381 40.0097 171.486 40.0097H178.559C179.663 40.0097 180.559 39.1143 180.559 38.0097V15.4909C180.559 10.711 179.445 7.04629 177.218 4.49691C174.991 1.94754 171.777 0.672852 167.576 0.672852C163.358 0.672852 159.981 1.98501 157.445 4.60931C154.909 7.23362 153.64 10.7296 153.64 15.0973V38.0097C153.64 39.1143 154.535 40.0097 155.64 40.0097H164.713C164.713 40.0097 164.713 40.0098 164.713 40.0099V40.0099ZM206.625 16.5594C205.462 16.5594 204.653 16.4141 204.199 16.1236C203.744 15.8331 203.517 15.3129 203.517 14.563C203.517 13.2886 204.471 12.6512 206.381 12.6511H211.445C212.549 12.6511 213.445 11.7556 213.445 10.6511V3.62884C213.445 2.52427 212.549 1.62884 211.445 1.62884H203.816C200.108 1.62884 197.231 2.64108 195.185 4.66556C193.139 6.69003 192.116 9.53932 192.116 13.2134V28.2565C192.116 32.062 193.198 34.9722 195.362 36.987C197.525 39.0018 200.653 40.0095 204.744 40.01H211.445C212.549 40.01 213.445 39.1146 213.445 38.01V31.0437C213.445 29.9392 212.549 29.0437 211.445 29.0437H205.998C204.708 29.0437 203.853 28.9172 203.435 28.6641C203.017 28.411 202.808 27.8815 202.808 27.0755C202.808 26.3634 203.012 25.8572 203.421 25.5571C203.83 25.257 204.526 25.1071 205.508 25.1073H210.735C211.839 25.1073 212.735 24.2118 212.735 23.1073V18.5594C212.735 17.4548 211.839 16.5594 210.735 16.5594H206.625ZM248.039 12.6511C249.143 12.6511 250.039 11.7556 250.039 10.6511V3.62884C250.039 2.52427 249.143 1.62884 248.039 1.62884H224.029C222.925 1.62884 222.029 2.52427 222.029 3.62884V10.6511C222.029 11.7556 222.925 12.6511 224.029 12.6511H228.511C229.616 12.6511 230.511 13.5465 230.511 14.6511V38.0097C230.511 39.1143 231.407 40.0097 232.511 40.0097H239.584C240.689 40.0097 241.584 39.1143 241.584 38.0097V14.6511C241.584 13.5465 242.48 12.6511 243.584 12.6511H248.039Z" fill="#F5DF66"/>
</svg>
